<svg width="41" height="40" viewBox="0 0 41 40" fill="none" xmlns="http://www.w3.org/2000/svg">
<path d="M32.1663 34.9997V24.9997M27.1663 29.9997H37.1663M37.1663 16.6663H3.83301M37.1663 19.9997V13.6663C37.1663 11.7995 37.1663 10.8661 36.803 10.153C36.4835 9.52584 35.9735 9.0159 35.3463 8.69632C34.6333 8.33301 33.6998 8.33301 31.833 8.33301H9.16634C7.2995 8.33301 6.36608 8.33301 5.65304 8.69632C5.02583 9.0159 4.5159 9.52583 4.19632 10.153C3.83301 10.8661 3.83301 11.7995 3.83301 13.6663V26.333C3.83301 28.1998 3.83301 29.1333 4.19632 29.8463C4.5159 30.4735 5.02583 30.9834 5.65304 31.303C6.36608 31.6663 7.2995 31.6663 9.16634 31.6663H20.4997" stroke="#3A4CA1" stroke-width="3.33333" stroke-linecap="round" stroke-linejoin="round"/>
</svg>
