<svg width="16" height="16" viewBox="0 0 16 16" fill="none" xmlns="http://www.w3.org/2000/svg">
<path d="M6 11.3327L8 13.3327M8 13.3327L10 11.3327M8 13.3327V8.66602M14.6667 5.99935H1.33333M3.66667 11.9993H3.46667C2.71993 11.9993 2.34656 11.9993 2.06134 11.854C1.81046 11.7262 1.60649 11.5222 1.47866 11.2713C1.33333 10.9861 1.33333 10.6128 1.33333 9.86601V4.79935C1.33333 4.05261 1.33333 3.67924 1.47866 3.39403C1.60649 3.14315 1.81046 2.93917 2.06134 2.81134C2.34656 2.66602 2.71993 2.66602 3.46667 2.66602H12.5333C13.2801 2.66602 13.6534 2.66602 13.9387 2.81134C14.1895 2.93917 14.3935 3.14315 14.5213 3.39403C14.6667 3.67925 14.6667 4.05261 14.6667 4.79935V9.86602C14.6667 10.6128 14.6667 10.9861 14.5213 11.2713C14.3935 11.5222 14.1895 11.7262 13.9387 11.854C13.6534 11.9993 13.2801 11.9993 12.5333 11.9993H12.3333" stroke="#828282" stroke-width="1.33333" stroke-linecap="round" stroke-linejoin="round"/>
</svg>
